<svg xmlns="http://www.w3.org/2000/svg" xmlns:xlink="http://www.w3.org/1999/xlink" width="830" height="472" viewBox="0 0 830 472"><defs><path id="7gu8d" d="M258 736.573h652.371v25.679c0 6.446-5.216 11.672-11.65 11.672H269.65c-6.434 0-11.65-5.226-11.65-11.672z"/><path id="7gu8e" d="M630.784 736.573c0 6.446-5.216 11.672-11.65 11.672h-69.897c-6.434 0-11.65-5.226-11.65-11.672 0-.027 93.197-.07 93.197 0z"/><path id="7gu8f" d="M327.897 405.076h512.577c6.434 0 11.65 5.226 11.65 11.672v319.825H316.247V416.748c0-6.446 5.216-11.672 11.65-11.672z"/><path id="7gu8a" d="M344.206 433.09h479.959v275.469H344.206z"/><path id="7gu8h" d="M570.206 374.728l302.887 7.003-11.65 373.517-181.732 4.67z"/><path id="7gu8i" d="M584.186 414.414c2.573 0 4.66 2.09 4.66 4.669a4.664 4.664 0 0 1-4.66 4.669 4.664 4.664 0 0 1-4.66-4.67 4.664 4.664 0 0 1 4.66-4.668z"/><path id="7gu8j" d="M747 302h294c9.007 0 16 7.975 16 17v439c0 9.025-6.993 16-16 16H747c-9.007 0-16-6.975-16-16V319c0-9.025 6.993-17 16-17z"/><path id="7gu8b" d="M765.918 349.048h256.288v378.187H765.918z"/><path id="7gu8l" d="M835.815 251L1162 293.02 1040.845 928z"/><path id="7gu8m" d="M894.062 321.035c2.573 0 4.66 2.09 4.66 4.669a4.664 4.664 0 0 1-4.66 4.668 4.664 4.664 0 0 1-4.66-4.668 4.664 4.664 0 0 1 4.66-4.67z"/><path id="7gu8n" d="M894.062 738.907c6.434 0 11.65 5.226 11.65 11.672 0 6.447-5.216 11.673-11.65 11.673s-11.65-5.226-11.65-11.673c0-6.446 5.216-11.672 11.65-11.672z"/><path id="7gu8o" d="M977.938 526.47h93.196c9.008 0 16.866 7.505 16.866 16.53v215c0 9.025-7.858 15.924-16.866 15.924h-93.196c-9.007 0-16.31-7.316-16.31-16.341V542.81c0-9.025 7.303-16.34 16.31-16.34z"/><path id="7gu8c" d="M971 564h107v173H971z"/><path id="7gu8q" d="M1010.557 510.128h97.855l-20.969 305.817z"/><path id="7gu8r" d="M1024.536 535.807c2.574 0 4.66 2.09 4.66 4.669a4.664 4.664 0 0 1-4.66 4.669 4.664 4.664 0 0 1-4.66-4.67 4.664 4.664 0 0 1 4.66-4.668z"/><path id="7gu8s" d="M1024.536 745.91c5.147 0 9.32 4.181 9.32 9.338 0 5.158-4.173 9.338-9.32 9.338s-9.32-4.18-9.32-9.338c0-5.157 4.173-9.338 9.32-9.338z"/><path id="7gu8t" d="M1010.557 552.148h27.959a2.332 2.332 0 0 1 2.33 2.335 2.332 2.332 0 0 1-2.33 2.334h-27.96a2.332 2.332 0 0 1-2.33-2.334 2.332 2.332 0 0 1 2.33-2.335z"/><clipPath id="7gu8g"><use xlink:href="#7gu8a"/></clipPath><clipPath id="7gu8k"><use xlink:href="#7gu8b"/></clipPath><clipPath id="7gu8p"><use xlink:href="#7gu8c"/></clipPath></defs><g><g transform="translate(-258 -302)"><g><g><use fill="#e5e5e5" xlink:href="#7gu8d"/></g><g><use fill="#757a7a" xlink:href="#7gu8e"/></g><g><use fill="#464c52" xlink:href="#7gu8f"/></g><g><use fill="#00bbf5" xlink:href="#7gu8a"/></g><g clip-path="url(#7gu8g)" opacity=".15"><use fill="#fff" xlink:href="#7gu8h"/></g><g><use fill="#e6ecee" xlink:href="#7gu8i"/></g></g><g><g><use fill="#464c52" xlink:href="#7gu8j"/></g><g><use fill="#e74c3c" xlink:href="#7gu8b"/></g><g clip-path="url(#7gu8k)" opacity=".15"><use fill="#fff" xlink:href="#7gu8l"/></g><g><use fill="#e6ecee" xlink:href="#7gu8m"/></g><g opacity=".25"><use fill="#e6ecee" xlink:href="#7gu8n"/></g></g><g><g><use fill="#464c52" xlink:href="#7gu8o"/></g><g><use fill="#f39c12" xlink:href="#7gu8c"/></g><g clip-path="url(#7gu8p)" opacity=".15"><use fill="#fff" xlink:href="#7gu8q"/></g><g><use fill="#e6ecee" xlink:href="#7gu8r"/></g><g opacity=".25"><use fill="#fff" xlink:href="#7gu8s"/></g><g><use fill="#e6ecee" xlink:href="#7gu8t"/></g></g></g></g></svg>