<svg xmlns="http://www.w3.org/2000/svg" xmlns:xlink="http://www.w3.org/1999/xlink" width="1468" height="922" viewBox="0 0 1468 922"><defs><path id="yrgla" d="M0 184.615c35.866-.172 184.003-4.835 203.073 2.426l528.48 481.149L0 244.455v-59.84zm400.03 0h181.053l110.1 350.147 29.36 92.995c3.458 9.726 15.596 29.223 11.01 38.816v-1.618L400.03 184.615zm326.63 0h171.267L735.223 666.573c-2.487 9.452 7.86 28.217 12.234 39.624l34.253 101.082L899.15 1155H730.33L734 671.425c-35.94-.83-90.407 4.061-129.673 8.895l-130.897 9.704L0 724.796V615.628l549.277 41.24c59.78 3.927 119.58 7.853 179.362 11.779l1.691.352v-.241l3.67.24-7.34-484.383zm331.523 0l218.977.808-3.67 2.426-535.82 478.724 320.513-481.958zm408.594 39.624l1.223 168.2L738.893 668.19l727.884-443.951zM0 385.969L730.33 668.19v.568l-1.691-.111L0 516.972V385.97zm1468 236.936L738.893 669 1468 508.885v114.02zm0 94.613V830.73h-1.223L738.893 670.616 1468 717.518zm-741.34-46.093h3.67v.808L0 957.688V826.686l726.66-155.261zM0 1155v-54.989l731.553-427.778L206.743 1155H0zm738.893-482.767L1468 940.707l-1.223 164.156-11.01-7.277-716.874-425.353zm-7.34 1.618c4.949 9.137-7.62 29.422-11.01 38.815l-30.583 96.23L581.083 1155H400.03v-.809l331.523-480.34zm6.117 0L1277.16 1155l-220.2-.809-319.29-480.34z"/></defs><g><g opacity=".05" transform="translate(0 -183)"><use xlink:href="#yrgla"/></g></g></svg>